.
 
http://www.scenetime.com    -   SceneTime [ We been having it ] !!!


How come you press harder on a remote control when you know the battery is dead? so you better seed to get speed ;)

        Seed back for speed


...................................NFO:.................................................[pre][img]http://img4.imageshack.us/img4/2879/65545972982540825112.jpg[/img]   
            
*******************************************************************************
                  Soul.Surfer.2011.480p.BRRip.XviD.AC3-PRESTiGE
*******************************************************************************

-------------------------------------------------------------------------------
                              General Information
-------------------------------------------------------------------------------

TiTLE............: Soul.Surfer.2011.480p.BRRip.XviD.AC3-PRESTiGE

iMDB.............: http://www.imdb.com/title/tt1596346/

GENRE............: Action | Drama | Sport

LANGUAGE.........: English

FORMAT...........: AVi

SOURCE...........: 720p.DTS.x264-CHD MANY THANKS!!!

FiLE SiZE........: 2.04 GB

SAMPLE iNCLUDED..: YES

SUBS.............: N/A

DURATiON.........: 1h 46mn

ENCODED by.......: [color=maroon]akosipalos[/color]



ViDEO iNFO:

ID                               : 0
Format                           : MPEG-4 Visual
Codec ID                         : XVID
Codec ID/Hint                    : XviD
Duration                         : 1h 46mn
Bit rate                         : 1 108 Kbps
Width                            : 720 pixels
Height                           : 304 pixels
Display aspect ratio             : 2.35:1
Frame rate                       : 23.976 fps
Color space                      : YUV
Chroma subsampling               : 4:2:0
Compression mode                 : Lossy
Bits/(Pixel*Frame)               : 0.211
Stream size                      : 844 MiB (40%)


AUDiO iNFO:

ID                               : 1
Format                           : AC-3
Format/Info                      : Audio Coding 3
Codec ID                         : 2000
Duration                         : 1h 46mn
Bit rate mode                    : Constant
Bit rate                         : 448 Kbps
Channel(s)                       : 6 channels
Sampling rate                    : 48.0 KHz
Compression mode                 : Lossy
Stream size                      : 176 MiB (8%)
Alignment                        : Aligned on interleaves
Interleave, duration             : 64 ms (1.53 video frames)



-------------------------------------------------------------------------------
                                 PLOT:
-------------------------------------------------------------------------------


A teenage surfer girl summons the courage to go back into the ocean after losing an arm in a shark attack. 


-------------------------------------------------------------------------------
                                 CAST:
-------------------------------------------------------------------------------


AnnaSophia Robb ... Bethany Hamilton

Dennis Quaid ... Tom Hamilton

Helen Hunt ... Cheri Hamilton

Carrie Underwood ... Sarah Hill

Ross Thomas ... Noah Hamilton

Lorraine Nicholson ... Alana Blanchard

Kevin Sorbo ... Holt Blanchard


-------------------------------------------------------------------------------
                               SCREENS:
-------------------------------------------------------------------------------


[img]http://i824.photobucket.com/albums/zz161/akosipalos/ss1-1.png[/img]

[img]http://i824.photobucket.com/albums/zz161/akosipalos/ss2.png[/img]

[img]http://i824.photobucket.com/albums/zz161/akosipalos/ss3.png[/img]

[img]http://i824.photobucket.com/albums/zz161/akosipalos/ss4.png[/img]

[img]http://i824.photobucket.com/albums/zz161/akosipalos/ss5.png[/img]

[img]http://i824.photobucket.com/albums/zz161/akosipalos/ss6.png[/img]


-------------------------------------------------------------------------------
                             Release Notes
-------------------------------------------------------------------------------

WE DONT RELEASE EVERYTHING TO OTHERS SITES YOU WANT MORE OF OUR STUFF COME FIND US AT .......

WE ARE LOOKING FOR SUPPLIERS BLURAY CAM R5 PRE RETAIL DVD GOT SOMETHING WE MIGHT LIKE WHEN YOU FIND US TELL US.......

ENCODER'S - ANYTHING AT ALL EMAIL US AT..... prestige@hushmail.me

** ** ** ** ** ** ** ** **

PRESTiGE is the level of respect at which one is regarded by others....RIzE Above Or Sink Below...


-------------------------------------------------------------------------------
                                 GREETZ:
-------------------------------------------------------------------------------


Twisted ,bigguy, Selina, 6of1, CTFX, HiTM4N, bedsy, mtyy, whitestag13, paranoid53, PA4U2C, phules, tac, BMB, Flawl3ss, smelise, fifer, akosipalos, DiLLoN, IMAGINE,"the squad" , floridajoe and To All Encoders Past And Present......


-------------------------------------------------------------------------------
Generated with Cool NFO Creator - http://fly.to/coolbeans
-------------------------------------------------------------------------------
[/pre]